<svg width="161" height="146" viewBox="0 0 161 146" fill="none" xmlns="http://www.w3.org/2000/svg">
<g opacity="0.5">
<mask id="mask0_3_48" style="mask-type:alpha" maskUnits="userSpaceOnUse" x="0" y="0" width="161" height="242">
<path fill-rule="evenodd" clip-rule="evenodd" d="M117.571 127.5L122.536 122.536L156.536 156.536L160.071 153L126.071 119L156.536 88.5355L153 85L122.536 115.464L117.571 110.5L156.536 71.5355L153 68L114.036 106.964L109.071 102L156.536 54.5355L153 51L105.536 98.4645L100.571 93.5L156.536 37.5355L153 34L97.0355 89.9645L92.0711 85L156.536 20.5355L153 17L88.5355 81.4645L83.5711 76.5L156.536 3.53553L153 0L80.0355 72.9645L7.07106 0L3.53553 3.53553L76.5 76.5L71.5355 81.4645L7.07106 17L3.53553 20.5355L68 85L63.0355 89.9645L7.07106 34L3.53553 37.5355L59.5 93.5L54.5355 98.4645L7.07106 51L3.53553 54.5355L51 102L46.0355 106.964L7.07106 68L3.53553 71.5355L42.5 110.5L37.5355 115.464L7.07106 85L3.53553 88.5355L34 119L0 153L3.53553 156.536L37.5355 122.536L42.5 127.5L0 170L3.53553 173.536L46.0355 131.036L51 136L0 187L3.53553 190.536L54.5355 139.536L59.5 144.5L0 204L3.53553 207.536L63.0355 148.036L68 153L0 221L3.53553 224.536L71.5355 156.536L76.5 161.5L0 238L3.53553 241.536L80.0355 165.036L156.536 241.536L160.071 238L83.5711 161.5L88.5355 156.536L156.536 224.536L160.071 221L92.0711 153L97.0355 148.036L156.536 207.536L160.071 204L100.571 144.5L105.536 139.536L156.536 190.536L160.071 187L109.071 136L114.036 131.036L156.536 173.536L160.071 170L117.571 127.5ZM41.0711 119L46.0355 123.964L51 119L46.0355 114.036L41.0711 119ZM49.5711 110.5L54.5355 115.464L59.5 110.5L54.5355 105.536L49.5711 110.5ZM58.0711 102L63.0355 106.964L68 102L63.0355 97.0355L58.0711 102ZM66.5711 93.5L71.5355 98.4645L76.5 93.5L71.5355 88.5355L66.5711 93.5ZM75.0711 85L80.0355 89.9645L85 85L80.0355 80.0355L75.0711 85ZM114.036 123.964L119 119L114.036 114.036L109.071 119L114.036 123.964ZM105.536 105.536L110.5 110.5L105.536 115.464L100.571 110.5L105.536 105.536ZM97.0355 97.0355L102 102L97.0355 106.964L92.0711 102L97.0355 97.0355ZM88.5355 88.5355L93.5 93.5L88.5355 98.4645L83.5711 93.5L88.5355 88.5355ZM80.0355 97.0355L75.0711 102L80.0355 106.964L85 102L80.0355 97.0355ZM71.5355 105.536L66.5711 110.5L71.5355 115.464L76.5 110.5L71.5355 105.536ZM63.0355 114.036L58.0711 119L63.0355 123.964L68 119L63.0355 114.036ZM54.5355 122.536L49.5711 127.5L54.5355 132.464L59.5 127.5L54.5355 122.536ZM105.536 122.536L110.5 127.5L105.536 132.464L100.571 127.5L105.536 122.536ZM97.0355 114.036L102 119L97.0355 123.964L92.0711 119L97.0355 114.036ZM88.5355 105.536L93.5 110.5L88.5355 115.464L83.5711 110.5L88.5355 105.536ZM58.0711 136L63.0355 140.964L68 136L63.0355 131.036L58.0711 136ZM66.5711 127.5L71.5355 132.464L76.5 127.5L71.5355 122.536L66.5711 127.5ZM75.0711 119L80.0355 123.964L85 119L80.0355 114.036L75.0711 119ZM97.0355 140.964L102 136L97.0355 131.036L92.0711 136L97.0355 140.964ZM88.5355 122.536L93.5 127.5L88.5355 132.464L83.5711 127.5L88.5355 122.536ZM80.0355 131.036L75.0711 136L80.0355 140.964L85 136L80.0355 131.036ZM71.5355 139.536L66.5711 144.5L71.5355 149.464L76.5 144.5L71.5355 139.536ZM88.5355 139.536L93.5 144.5L88.5355 149.464L83.5711 144.5L88.5355 139.536ZM80.0355 148.036L75.0711 153L80.0355 157.964L85 153L80.0355 148.036Z" fill="#E5E5E5"/>
</mask>
<g mask="url(#mask0_3_48)">
<circle cx="80.0355" cy="118.036" r="72.5" fill="#E5E5E5"/>
</g>
</g>
</svg>
